<?xml version="1.0" standalone="no"?>
<!DOCTYPE svg PUBLIC "-//W3C//DTD SVG 20010904//EN"
 "http://www.w3.org/TR/2001/REC-SVG-20010904/DTD/svg10.dtd">
<svg version="1.0" xmlns="http://www.w3.org/2000/svg"
 width="500.000000pt" height="500.000000pt" viewBox="0 0 500.000000 500.000000"
 preserveAspectRatio="xMidYMid meet">

<g transform="translate(0.000000,500.000000) scale(0.100000,-0.100000)"
fill="#000000" stroke="none">
<path d="M0 2500 l0 -2500 2500 0 2500 0 0 2500 0 2500 -2500 0 -2500 0 0
-2500z m1607 -1756 c44 -33 53 -60 53 -167 0 -158 -33 -200 -160 -201 -121 -1
-160 42 -168 182 -9 159 40 216 180 210 49 -3 75 -9 95 -24z m213 -129 l0
-155 44 0 c25 0 48 5 51 10 3 6 19 10 36 10 28 0 29 -1 29 -50 l0 -50 -130 0
-130 0 0 155 c0 97 -4 155 -10 155 -5 0 -10 18 -10 40 l0 40 60 0 60 0 0 -155z
m348 117 c2 -22 -2 -34 -12 -38 -23 -9 -24 -244 -1 -244 10 0 15 -11 15 -35
l0 -35 -80 0 -80 0 0 35 c0 24 5 35 15 35 13 0 15 20 15 120 0 100 -2 120 -15
120 -10 0 -15 10 -15 33 0 19 3 37 7 41 4 4 39 5 78 4 l70 -3 3 -33z m127 28
c3 -5 21 -63 39 -127 l33 -118 32 105 c48 159 43 152 99 148 47 -3 47 -3 50
-40 2 -27 -1 -38 -11 -38 -9 0 -31 -53 -63 -152 l-50 -153 -56 -3 -56 -3 -32
103 c-17 57 -39 127 -47 156 -9 28 -23 52 -30 52 -9 0 -13 14 -13 40 l0 40 49
0 c28 0 53 -4 56 -10z m563 -32 l3 -38 -75 0 -76 0 0 -40 0 -40 50 0 50 0 0
-35 0 -35 -50 0 -50 0 0 -45 0 -45 75 0 75 0 0 -35 0 -35 -130 0 -130 0 0 155
c0 97 -4 155 -10 155 -5 0 -10 18 -10 40 l0 41 138 -3 137 -3 3 -37z m315 17
c41 -19 57 -50 57 -112 0 -40 -5 -50 -36 -80 l-37 -34 24 -27 c13 -15 33 -36
46 -47 l22 -20 -23 -29 c-22 -28 -25 -29 -55 -16 -20 8 -49 37 -77 76 -25 35
-50 64 -55 64 -5 0 -9 -31 -9 -70 l0 -70 -50 0 -50 0 0 155 c0 131 -2 155 -15
155 -16 0 -22 59 -7 75 13 14 227 -2 265 -20z m338 -332 c12 -38 27 -71 33
-75 7 -5 5 -8 -6 -8 -9 0 -20 9 -23 20 -5 15 -15 20 -40 20 -24 0 -34 -5 -38
-20 -3 -11 -13 -20 -24 -20 -12 0 -14 3 -6 8 16 10 55 121 47 133 -3 5 4 9 15
9 15 0 24 -14 42 -67z m131 55 c-16 -16 -16 -110 0 -126 9 -9 5 -12 -17 -11
-17 0 -24 3 -17 6 8 3 12 27 12 68 0 41 -4 65 -12 68 -7 3 0 6 17 6 22 1 26
-2 17 -11z"/>
<path d="M1478 693 c-23 -6 -38 -55 -38 -127 0 -77 16 -110 55 -114 44 -5 55
18 55 120 0 75 -3 91 -20 108 -20 20 -23 21 -52 13z"/>
<path d="M3030 640 l0 -50 35 0 c26 0 39 6 51 25 15 23 15 27 0 50 -12 19 -25
25 -51 25 l-35 0 0 -50z"/>
<path d="M3463 425 c-11 -34 -10 -35 14 -35 21 0 23 3 17 23 -14 46 -20 48
-31 12z"/>
</g>
</svg>
